<?xml version="1.0" encoding="utf-8"?>
<!-- Generator: Adobe Illustrator 22.1.0, SVG Export Plug-In . SVG Version: 6.00 Build 0)  -->
<svg version="1.1" id="Layer_1" xmlns="http://www.w3.org/2000/svg" xmlns:xlink="http://www.w3.org/1999/xlink" x="0px" y="0px"
	 viewBox="0 0 256 256" style="enable-background:new 0 0 256 256;" xml:space="preserve">
<style type="text/css">
	.st0{fill:#231F20;}
	.st1{fill:#FFEFE4;}
	.st2{fill:#69EBFC;}
	.st3{fill:#5FD4E3;}
	.st4{fill:#A1F1FC;}
	.st5{fill:#D476E2;}
	.st6{fill:#B665C2;}
	.st7{fill:#EA82FA;}
	.st8{fill:#FFF7F2;}
	.st9{fill:#FF8354;}
	.st10{fill:#FFA172;}
	.st11{fill:#6770E6;}
	.st12{fill:#5861C7;}
	.st13{fill:#E0734A;}
	.st14{fill:#EDD4C2;}
	.st15{fill:#CC6944;}
	.st16{fill:#858EFF;}
	.st17{fill:#C76642;}
	.st18{fill:#FFFFFF;}
	.st19{fill:#FFDEC7;}
	.st20{fill:#4E56B0;}
	.st21{fill:#94529E;}
	.st22{fill:#41B6C5;}
	.st23{fill:#9847A4;}
	.st24{fill:#C2552C;}
	.st25{fill:#CFB6A4;}
</style>
<g>
	<circle class="st2" cx="128" cy="128" r="128"/>
	<path class="st3" d="M128,250C58.311,250,1.632,194.306,0.038,125C0.015,125.997,0,126.997,0,128c0,70.692,57.308,128,128,128
		s128-57.308,128-128c0-1.003-0.015-2.003-0.038-3C254.368,194.306,197.689,250,128,250z"/>
	<path class="st4" d="M128,6c69.689,0,126.368,55.694,127.962,125c0.023-0.997,0.038-1.997,0.038-3C256,57.308,198.692,0,128,0
		S0,57.308,0,128c0,1.003,0.015,2.003,0.038,3C1.632,61.694,58.311,6,128,6z"/>
	<path class="st11" d="M133.489,137.25l-17.285-12.346c-4.131-2.951-11.665-5.365-16.742-5.365s-9.231-2.596-9.231-5.769
		S86.077,108,81,108H66.932c-5.077,0-9.231,3.635-9.231,8.077s-1.508,8.077-3.351,8.077c-1.843,0-3.351,4.154-3.351,9.231v13.846
		c0,5.077,4.154,9.231,9.231,9.231s9.231,4.154,9.231,9.231v36.923c0,5.077-0.815,13.304-1.81,18.282l-0.995,4.974
		c-0.725,3.627-1.353,8.976-1.641,13.577c3.756,2.127,7.63,4.068,11.609,5.814l0.258-1.288c0.996-4.978,4.192-12.454,7.104-16.614
		l5.567-7.953c2.911-4.159,7.151-11.277,9.422-15.818l10.205-20.411c2.271-4.541,7.244-8.256,11.051-8.256s6.923-4.154,6.923-9.231
		v-4.615c0-5.077,3.115-9.231,6.923-9.231c3.808,0,6.923-2.077,6.923-4.615S137.62,140.201,133.489,137.25z"/>
	<path class="st12" d="M65.51,233.73c-0.208,1.921-0.38,3.879-0.495,5.719c0.001,0.001,0.002,0.001,0.003,0.001
		c0.93,0.527,1.868,1.042,2.813,1.546c0.023,0.013,0.047,0.025,0.07,0.037c0.932,0.497,1.871,0.982,2.817,1.456
		c0.016,0.008,0.032,0.016,0.047,0.023c0.958,0.479,1.922,0.947,2.893,1.403c0.001,0,0.002,0.001,0.003,0.001
		c0.981,0.46,1.969,0.909,2.963,1.345l0.258-1.288c0.249-1.246,0.636-2.648,1.122-4.115C73.715,238.037,69.544,235.991,65.51,233.73
		z"/>
	<path class="st11" d="M252.829,99.583l-4.469-6.875c-2.398-3.689-7.775-7.846-11.949-9.237l-26.821-8.94
		C205.415,73.138,198.4,72,194,72h-12c-4.4,0-10.709,2.371-14.021,5.268l-3.959,3.464C160.709,83.629,158,89.6,158,94v12
		c0,4.4,2.733,10.343,6.074,13.206l1.852,1.587C169.267,123.657,175.6,126,180,126h14c4.4,0,8.687,3.534,9.527,7.853l10.946,56.294
		C215.313,194.466,219.6,198,224,198h4c4.4,0,9.537-3.255,11.416-7.234l8.653-18.323C253.195,158.598,256,143.627,256,128
		C256,118.233,254.901,108.723,252.829,99.583z"/>
	<path class="st11" d="M6.783,86.783l19.56,19.56c3.111,3.111,8.947,7.119,12.967,8.906l3.379,1.502C46.71,118.538,50,118.2,50,116
		s-2.546-6.546-5.657-9.657l-6.686-6.686C34.546,96.546,32,90.85,32,87c0-3.85,3.6-7,8-7h10c4.4,0,10.064-2.949,12.588-6.554
		l18.825-26.892C83.936,42.949,86,36.4,86,32V8h-2.624C47.454,21.364,19.154,50.39,6.783,86.783z"/>
	<path class="st16" d="M80.159,9.249c-0.113,0.046-0.225,0.092-0.338,0.138c-0.965,0.392-1.924,0.796-2.877,1.211
		c-0.139,0.061-0.279,0.122-0.418,0.183c-0.954,0.419-1.901,0.85-2.842,1.292c-0.106,0.05-0.213,0.099-0.32,0.149
		c-4.244,2.006-8.361,4.238-12.334,6.682c-0.056,0.035-0.112,0.07-0.168,0.105c-0.909,0.561-1.811,1.134-2.705,1.718
		c-0.134,0.087-0.267,0.176-0.4,0.263c-0.826,0.543-1.645,1.095-2.457,1.657c-0.149,0.103-0.297,0.205-0.445,0.309
		c-0.82,0.572-1.632,1.153-2.437,1.743c-0.116,0.085-0.233,0.169-0.348,0.254c-3.709,2.737-7.265,5.67-10.653,8.783
		c-0.125,0.115-0.248,0.231-0.372,0.346c-0.701,0.649-1.395,1.305-2.081,1.97c-0.169,0.164-0.338,0.329-0.506,0.494
		c-0.646,0.632-1.285,1.272-1.918,1.918c-0.171,0.174-0.342,0.348-0.511,0.524c-0.647,0.668-1.286,1.344-1.918,2.027
		c-0.136,0.147-0.274,0.292-0.409,0.44c-0.733,0.798-1.456,1.604-2.168,2.42c-0.025,0.028-0.05,0.056-0.075,0.084
		c-1.52,1.745-2.993,3.532-4.419,5.357c-0.089,0.115-0.176,0.231-0.265,0.346c-0.595,0.768-1.182,1.542-1.76,2.323
		c-0.159,0.215-0.315,0.433-0.473,0.649c-0.505,0.693-1.005,1.39-1.497,2.093c-0.176,0.252-0.351,0.504-0.525,0.758
		c-0.472,0.686-0.938,1.377-1.397,2.072c-0.169,0.255-0.338,0.51-0.505,0.767c-0.475,0.73-0.941,1.467-1.401,2.207
		c-0.135,0.217-0.273,0.433-0.406,0.651c-0.552,0.899-1.093,1.805-1.622,2.719c-0.033,0.057-0.068,0.114-0.101,0.171
		c-1.148,1.988-2.243,4.01-3.286,6.064c-0.114,0.224-0.223,0.45-0.335,0.674c-0.391,0.782-0.777,1.568-1.152,2.359
		c-0.142,0.298-0.28,0.598-0.419,0.897c-0.34,0.731-0.675,1.466-1.001,2.204c-0.142,0.321-0.283,0.643-0.422,0.966
		c-0.32,0.739-0.631,1.481-0.937,2.227c-0.128,0.312-0.257,0.623-0.382,0.935c-0.322,0.803-0.634,1.611-0.94,2.422
		c-0.096,0.254-0.195,0.506-0.289,0.761c-0.392,1.06-0.773,2.126-1.138,3.199c-0.001,0.002-0.001,0.003-0.002,0.005l1.595,1.595
		C21.806,53.188,50.313,25.453,86,13.06V8h-2.624c0,0,0,0-0.001,0C82.296,8.402,81.224,8.819,80.159,9.249z"/>
	<path class="st11" d="M191.029,16.576l-1.782,1.426C185.811,20.751,183,26.6,183,31v2c0,4.4-3.6,8-8,8h-2c-4.4,0-8,3.6-8,8v8
		c0,4.4,3.6,8,8,8h2c4.4,0,9.908-3.053,12.24-6.784l6.52-10.432C196.092,44.053,201.375,41,205.5,41s7.5-3.6,7.5-8v-0.692
		C206.273,26.328,198.913,21.046,191.029,16.576z"/>
	<path class="st16" d="M191.03,16.577C191.03,16.576,191.029,16.577,191.03,16.577l-1.783,1.426
		c-0.801,0.641-1.565,1.455-2.271,2.375c8.955,4.658,17.288,10.342,24.847,16.898C212.564,36.036,213,34.571,213,33v-0.692
		c-0.84-0.746-1.689-1.482-2.548-2.206c-0.003-0.002-0.005-0.004-0.008-0.006C204.422,25.018,197.926,20.486,191.03,16.577z"/>
	<path class="st11" d="M57,101L57,101c-4.418,0-8-3.582-8-8v0c0-4.418,3.582-8,8-8h0c4.418,0,8,3.582,8,8v0
		C65,97.418,61.418,101,57,101z"/>
	<path class="st11" d="M161,33h5c4.418,0,8-3.582,8-8v0c0-4.418-3.582-8-8-8h-5c-4.418,0-8,3.582-8,8v0
		C153,29.418,156.582,33,161,33z"/>
	<path class="st11" d="M239.999,66c-3.109-5.605-6.627-10.951-10.513-16H224c-4.418,0-8,3.582-8,8s3.582,8,8,8H239.999z"/>
	<path class="st16" d="M229.486,50.001C229.486,50.001,229.486,50,229.486,50.001L224.57,50c4.359,5.008,8.342,10.353,11.889,16
		h3.539c-1.551-2.796-3.204-5.527-4.953-8.19c-0.008-0.013-0.017-0.026-0.026-0.039C233.27,55.111,231.424,52.519,229.486,50.001z"
		/>
	<path class="st5" d="M86.692,191h-13.82c0-6.245-5.063-11.308-11.308-11.308h-8.795v0c0-6.245-5.063-11.308-11.308-11.308
		s-11.308,5.063-11.308,11.308v0h-6.282c-6.245,0-11.308,5.063-11.308,11.308h-1.256C5.063,191,0,196.063,0,202.308
		s5.063,11.308,11.308,11.308h75.385c6.245,0,11.308-5.063,11.308-11.308S92.937,191,86.692,191z"/>
	<path class="st7" d="M11.308,197h1.256c0-6.245,5.063-11.308,11.308-11.308h6.282v0c0-6.245,5.063-11.308,11.308-11.308
		s11.308,5.063,11.308,11.308v0h8.795c6.245,0,11.308,5.063,11.308,11.308h13.82c5.205,0,9.576,3.521,10.893,8.308
		c0.263-0.957,0.415-1.96,0.415-3C98,196.063,92.937,191,86.692,191h-13.82c0-6.245-5.063-11.308-11.308-11.308h-8.795v0
		c0-6.245-5.063-11.308-11.308-11.308s-11.308,5.063-11.308,11.308v0h-6.282c-6.245,0-11.308,5.063-11.308,11.308h-1.256
		C5.063,191,0,196.063,0,202.308c0,1.04,0.152,2.043,0.415,3C1.731,200.521,6.103,197,11.308,197z"/>
	<path class="st5" d="M244.692,141h-3.939c0.003-0.103,0.016-0.204,0.016-0.308v0c0-5.455-3.864-10.007-9.004-11.071
		c-0.039-6.212-5.083-11.236-11.304-11.236c-6.146,0-11.136,4.906-11.293,11.015c-6.108,0.157-11.015,5.147-11.015,11.293v0
		c0,0.104,0.013,0.204,0.016,0.308h-5.416c0.003-0.103,0.016-0.204,0.016-0.308v0c0-6.245-5.063-11.308-11.308-11.308
		s-11.308,5.063-11.308,11.308v0c0,0.104,0.013,0.204,0.016,0.308h-0.862c-6.245,0-11.308,5.063-11.308,11.308
		s5.063,11.308,11.308,11.308h75.385c6.245,0,11.308-5.063,11.308-11.308S250.937,141,244.692,141z"/>
	<path class="st7" d="M169.308,147h0.862c-0.003-0.103-0.016-0.204-0.016-0.308v0c0-6.245,5.063-11.308,11.308-11.308
		s11.308,5.063,11.308,11.308v0c0,0.104-0.013,0.204-0.016,0.308h5.416c-0.003-0.103-0.016-0.204-0.016-0.308v0
		c0-6.146,4.906-11.136,11.015-11.293c0.157-6.108,5.147-11.015,11.293-11.015c6.221,0,11.265,5.024,11.304,11.236
		c5.14,1.064,9.004,5.616,9.004,11.071v0c0,0.104-0.013,0.204-0.016,0.308h3.939c5.205,0,9.576,3.521,10.893,8.308
		c0.263-0.957,0.415-1.96,0.415-3c0-6.245-5.063-11.308-11.308-11.308h-3.939c0.003-0.103,0.016-0.204,0.016-0.308v0
		c0-5.455-3.864-10.007-9.004-11.071c-0.039-6.212-5.083-11.236-11.304-11.236c-6.146,0-11.136,4.906-11.293,11.015
		c-6.108,0.157-11.015,5.147-11.015,11.293v0c0,0.104,0.013,0.204,0.016,0.308h-5.416c0.003-0.103,0.016-0.204,0.016-0.308v0
		c0-6.245-5.063-11.308-11.308-11.308s-11.308,5.063-11.308,11.308v0c0,0.104,0.013,0.204,0.016,0.308h-0.862
		c-6.245,0-11.308,5.063-11.308,11.308c0,1.04,0.152,2.043,0.415,3C159.731,150.521,164.103,147,169.308,147z"/>
	<path class="st5" d="M149.564,49.692h-0.795v0c0-6.245-5.063-11.308-11.308-11.308s-11.308,5.063-11.308,11.308v0h-4.282
		c-6.245,0-11.308,5.063-11.308,11.308s5.063,11.308,11.308,11.308h27.692c6.245,0,11.308-5.063,11.308-11.308
		S155.809,49.692,149.564,49.692z"/>
	<path class="st7" d="M121.872,55.692h4.282v0c0-6.245,5.063-11.308,11.308-11.308s11.308,5.063,11.308,11.308v0h0.795
		c5.205,0,9.576,3.521,10.893,8.308c0.263-0.957,0.415-1.96,0.415-3c0-6.245-5.063-11.308-11.308-11.308h-0.795v0
		c0-6.245-5.063-11.308-11.308-11.308s-11.308,5.063-11.308,11.308v0h-4.282c-6.245,0-11.308,5.063-11.308,11.308
		c0,1.04,0.152,2.043,0.415,3C112.295,59.213,116.667,55.692,121.872,55.692z"/>
</g>
</svg>
